<svg width="21" height="16" viewBox="0 0 21 16" fill="none" xmlns="http://www.w3.org/2000/svg">
<path d="M17.7768 1.32631C16.4656 0.71242 15.0596 0.260131 13.5895 0.00108666C13.5628 -0.00391282 13.536 0.00858115 13.5222 0.0335697C13.3414 0.361747 13.1411 0.789881 13.0008 1.12639C11.4197 0.884845 9.84663 0.884845 8.29789 1.12639C8.15759 0.782401 7.95003 0.361747 7.76839 0.0335697C7.7546 0.00941489 7.72785 -0.00307908 7.70108 0.00108666C6.23182 0.259303 4.82581 0.711592 3.51384 1.32631C3.50248 1.33131 3.49275 1.33965 3.48629 1.35047C0.819375 5.4161 0.0887967 9.3818 0.447194 13.2983C0.448816 13.3175 0.459357 13.3358 0.473952 13.3475C2.2335 14.666 3.93793 15.4665 5.61071 15.9971C5.63748 16.0054 5.66584 15.9954 5.68288 15.9729C6.07858 15.4215 6.4313 14.8401 6.73373 14.2287C6.75158 14.1929 6.73454 14.1504 6.69807 14.1363C6.13858 13.9197 5.60584 13.6557 5.09338 13.3558C5.05285 13.3317 5.0496 13.2725 5.08689 13.2442C5.19473 13.1617 5.3026 13.0759 5.40557 12.9893C5.4242 12.9735 5.45016 12.9701 5.47207 12.9801C8.83871 14.5486 12.4835 14.5486 15.8104 12.9801C15.8323 12.9693 15.8583 12.9726 15.8777 12.9885C15.9807 13.0751 16.0886 13.1617 16.1972 13.2442C16.2345 13.2725 16.2321 13.3317 16.1915 13.3558C15.6791 13.6615 15.1463 13.9197 14.586 14.1354C14.5496 14.1496 14.5333 14.1929 14.5512 14.2287C14.8601 14.8393 15.2128 15.4207 15.6012 15.9721C15.6175 15.9954 15.6466 16.0054 15.6734 15.9971C17.3543 15.4665 19.0587 14.666 20.8183 13.3475C20.8337 13.3358 20.8434 13.3183 20.845 13.2992C21.274 8.77122 20.1266 4.83804 17.8035 1.3513C17.7978 1.33965 17.7881 1.33131 17.7768 1.32631ZM7.23649 10.9136C6.2229 10.9136 5.38772 9.96403 5.38772 8.79789C5.38772 7.63175 6.2067 6.6822 7.23649 6.6822C8.27436 6.6822 9.10145 7.64009 9.08522 8.79789C9.08522 9.96403 8.26625 10.9136 7.23649 10.9136ZM14.072 10.9136C13.0584 10.9136 12.2232 9.96403 12.2232 8.79789C12.2232 7.63175 13.0422 6.6822 14.072 6.6822C15.1099 6.6822 15.9369 7.64009 15.9207 8.79789C15.9207 9.96403 15.1099 10.9136 14.072 10.9136Z" fill="#888888"/>
</svg>
