<svg width="112" height="49" viewBox="0 0 112 49" fill="none" xmlns="http://www.w3.org/2000/svg">
<path d="M39.0998 27.0682L43.8815 26.0969C44.1325 26.0459 44.376 25.963 44.6059 25.8501L50.7075 22.856C51.0393 22.6932 51.3381 22.4705 51.589 22.1991L53.8661 19.7354C54.6362 18.9022 54.6849 17.6322 53.9808 16.7425C53.685 16.3686 53.2804 16.0958 52.823 15.9616L51.5839 15.5981C51.0178 15.432 50.4152 15.4365 49.8515 15.6111L41.5074 18.1963C41.3106 18.2573 41.1206 18.3384 40.9404 18.4383L34.4558 22.034C33.2291 22.7142 33.1241 24.4383 34.2593 25.2622L37.0887 26.7742C37.7044 27.1032 38.4156 27.2072 39.0998 27.0682Z" fill="#FF073A"/>
<path d="M37.2791 0H9.24725C6.3397 0 5.13228 3.72175 7.48608 5.42864L13.4644 9.76389L17.3869 13.1103C18.1181 13.7341 19.104 13.9698 20.0383 13.7442L40.6407 8.76851C41.9875 8.44323 42.9364 7.23791 42.9364 5.85235V4.68266C42.9364 3.65458 42.41 2.69809 41.5414 2.14808L38.8841 0.465418C38.404 0.161402 37.8474 0 37.2791 0Z" fill="#FF073A"/>
<path d="M38.4538 17.5505L46.5836 13.8318C47.3831 13.4661 47.7431 12.528 47.3936 11.7214C47.2585 11.4095 47.0284 11.1482 46.7361 10.9748L46.4995 10.8343C45.8549 10.4517 45.0711 10.3832 44.3699 10.6483L35.3261 14.0669C35.1855 14.1201 35.0411 14.1626 34.8941 14.1941L28.1099 15.6482C26.0667 16.0861 25.8796 18.9287 27.8478 19.6307C28.2144 19.7614 28.6105 19.7864 28.9907 19.7027L37.8509 17.7522C38.0584 17.7065 38.2605 17.6389 38.4538 17.5505Z" fill="#FF073A"/>
<path d="M72.6248 27.0682L67.8431 26.0969C67.592 26.0459 67.3486 25.963 67.1186 25.8501L61.0171 22.856C60.6853 22.6932 60.3865 22.4705 60.1356 22.1991L57.8586 19.7354C57.0884 18.9022 57.0397 17.6322 57.7438 16.7425C58.0397 16.3686 58.4442 16.0958 58.9017 15.9616L60.1407 15.5981C60.7069 15.432 61.3095 15.4365 61.8731 15.6111L70.2172 18.1963C70.414 18.2573 70.604 18.3384 70.7841 18.4383L77.2687 22.034C78.4954 22.7142 78.6004 24.4383 77.4652 25.2622L74.6358 26.7741C74.0201 27.1032 73.3089 27.2072 72.6248 27.0682Z" fill="#FF073A"/>
<path d="M74.4455 0H102.477C105.385 0 106.592 3.72174 104.238 5.42863L98.2601 9.76389L94.3376 13.1103C93.6064 13.7341 92.6205 13.9698 91.6862 13.7442L71.084 8.76851C69.7371 8.44323 68.7883 7.23791 68.7883 5.85235V4.68266C68.7883 3.65458 69.3147 2.69809 70.1833 2.14808L72.8406 0.465423C73.3207 0.161404 73.8773 0 74.4455 0Z" fill="#FF073A"/>
<path d="M73.2706 17.5505L65.1409 13.8318C64.3414 13.4661 63.9814 12.528 64.3309 11.7214C64.466 11.4095 64.696 11.1482 64.9883 10.9748L65.2249 10.8343C65.8696 10.4517 66.6533 10.3832 67.3545 10.6483L76.3982 14.0669C76.5388 14.1201 76.6833 14.1626 76.8303 14.1941L83.6144 15.6482C85.6576 16.0861 85.8446 18.9287 83.8765 19.6307C83.5099 19.7614 83.1138 19.7864 82.7336 19.7027L73.8735 17.7522C73.6659 17.7065 73.4638 17.6389 73.2706 17.5505Z" fill="#FF073A"/>
<path d="M25.2156 38.0999V48.3876H23.32L18.3457 42.1415V48.3876H16.0652V38.0999H17.9751L22.9351 44.346V38.0999H25.2156Z" fill="#FF073A"/>
<path d="M29.7824 46.3567H35.5588V48.3876H27.5345V38.097H29.7824V46.3567Z" fill="#FF073A"/>
<path d="M41.1055 45.7252H39.1638V48.3876H36.9159V38.097H41.1055C43.9728 38.097 45.4065 39.372 45.4065 41.9219C45.4065 44.4574 43.9728 45.7252 41.1055 45.7252ZM43.0611 41.9219C43.0611 40.678 42.4093 40.0561 41.1055 40.0561H39.1638V43.7733H41.1055C42.4093 43.7733 43.0611 43.1562 43.0611 41.9219Z" fill="#FF073A"/>
<path d="M57.6182 43.0821H59.7277V47.2559C59.1861 47.6772 58.5589 48.0006 57.8463 48.2259C57.1336 48.4513 56.4162 48.5639 55.6941 48.5639C54.6583 48.5639 53.7271 48.3386 52.9005 47.8879C52.0738 47.4274 51.4229 46.7954 50.9478 45.992C50.4822 45.1788 50.2494 44.2627 50.2494 43.2437C50.2494 42.2248 50.4822 41.3136 50.9478 40.5101C51.4229 39.6969 52.0785 39.065 52.9147 38.6143C53.7509 38.1538 54.6916 37.9235 55.7368 37.9235C56.611 37.9235 57.4044 38.0754 58.1171 38.3791C58.8297 38.6829 59.4284 39.1238 59.913 39.7018L58.4306 41.1127C57.718 40.3387 56.8581 39.9517 55.8508 39.9517C55.2142 39.9517 54.6488 40.0888 54.1547 40.3632C53.6606 40.6375 53.2758 41.0245 53.0002 41.5242C52.7247 42.0239 52.5869 42.5971 52.5869 43.2437C52.5869 43.8806 52.7247 44.4489 53.0002 44.9485C53.2758 45.4482 53.6559 45.8401 54.1405 46.1243C54.6346 46.3986 55.1952 46.5358 55.8223 46.5358C56.4875 46.5358 57.0861 46.3888 57.6182 46.0949V43.0821Z" fill="#FF073A"/>
<path d="M64.7121 38.097H67.6003L71.6229 48.3876H69.2567L68.5537 46.6079H63.7378L63.0558 48.3876H60.6895L64.7121 38.097ZM64.4824 44.7278H67.816L66.2223 40.3934H66.0762L64.4824 44.7278Z" fill="#FF073A"/>
<path d="M81.8781 48.3876L81.8639 42.215L79.6544 47.0234H77.0338L74.9654 42.3472V48.3876H72.7989V38.0999H74.7088L78.4431 44.4929L82.1204 38.0999H84.0161L84.0446 48.3876H81.8781Z" fill="#FF073A"/>
<path d="M94.5474 48.3876H86.37V38.097H94.5474V40.0561H88.618V42.1731H93.6218V44.0532H88.618V46.4357H94.5474V48.3876Z" fill="#FF073A"/>
</svg>
