<svg width="21" height="16" viewBox="0 0 21 16" fill="none" xmlns="http://www.w3.org/2000/svg">
<path d="M8.10862 15.0308C7.54025 15.0308 7.63688 14.8162 7.44085 14.275L5.76965 8.77507L18.634 1.14316" fill="black"/>
<path d="M8.10864 15.0308C8.5472 15.0308 8.7409 14.8303 8.98576 14.5923L11.3247 12.3179L8.40715 10.5586" fill="#383838"/>
<path d="M8.4068 10.559L15.4763 15.7821C16.2831 16.2272 16.8652 15.9967 17.0663 15.0332L19.9439 1.47253C20.2385 0.291351 19.4937 -0.244566 18.7218 0.105841L1.82421 6.62148C0.670801 7.08416 0.677672 7.72767 1.61399 8.01434L5.9503 9.36787L15.9893 3.03438C16.4632 2.74698 16.8983 2.90135 16.5413 3.21828" fill="url(#paint0_linear_19_321)"/>
<defs>
<linearGradient id="paint0_linear_19_321" x1="13.5239" y1="6.992" x2="16.2616" y2="13.2296" gradientUnits="userSpaceOnUse">
<stop stop-color="#888888"/>
<stop offset="1" stop-color="#9C9C9C"/>
</linearGradient>
</defs>
</svg>
