<svg width="29" height="16" viewBox="0 0 29 16" fill="none" xmlns="http://www.w3.org/2000/svg">
<path fill-rule="evenodd" clip-rule="evenodd" d="M4.47568 0H1.41244C0.537225 0 0.362183 0.395789 0.362183 0.833684C0.362183 1.61432 1.40018 5.48632 5.19773 10.6072C7.72884 14.1044 11.2953 16 14.5406 16C16.488 16 16.7286 15.5789 16.7286 14.8539V12.2105C16.7286 11.3684 16.9124 11.2 17.5295 11.2C17.9846 11.2 18.7635 11.4189 20.5804 13.1048C22.6573 15.1032 22.9995 16 24.1679 16H27.2312C28.1064 16 28.544 15.5789 28.2911 14.7478C28.0154 13.92 27.0238 12.7183 25.7074 11.2943C24.9933 10.4825 23.922 9.60758 23.5982 9.17053C23.1431 8.60884 23.2743 8.35874 23.5982 7.85937C23.5982 7.85937 27.3301 2.80084 27.7204 1.08379C27.9147 0.458948 27.7204 0 26.7927 0H23.7303C22.9514 0 22.5926 0.395789 22.3983 0.833684C22.3983 0.833684 20.8404 4.48674 18.634 6.85979C17.9198 7.54695 17.5951 7.76589 17.2056 7.76589C17.0113 7.76589 16.7295 7.54695 16.7295 6.92295V1.08379C16.7295 0.334316 16.5028 0 15.8543 0H11.0406C10.554 0 10.2617 0.34779 10.2617 0.677895C10.2617 1.38779 11.3645 1.552 11.4782 3.54947V7.89053C11.4782 8.84211 11.2997 9.01474 10.9094 9.01474C9.87136 9.01474 7.3455 5.34484 5.84713 1.14611C5.55306 0.328421 5.25812 0 4.47568 0Z" fill="#888888"/>
</svg>
